<?xml version="1.0" standalone="no"?>
<!DOCTYPE svg PUBLIC "-//W3C//DTD SVG 20010904//EN"
 "http://www.w3.org/TR/2001/REC-SVG-20010904/DTD/svg10.dtd">
<svg version="1.0" xmlns="http://www.w3.org/2000/svg"
 width="300.000000pt" height="267.000000pt" viewBox="0 0 300.000000 267.000000"
 preserveAspectRatio="xMidYMid meet">
<metadata>
Created by potrace 1.10, written by Peter Selinger 2001-2011
</metadata>
<g transform="translate(0.000000,267.000000) scale(0.100000,-0.100000)"
fill="#000000" stroke="none">
<path d="M620 2333 l0 -198 -68 -22 c-37 -12 -88 -30 -114 -42 l-48 -20 0
-730 c0 -489 3 -732 10 -736 6 -4 51 3 100 14 289 68 625 69 889 1 l79 -20 89
21 c279 67 607 66 890 -1 47 -11 91 -20 99 -20 12 0 14 103 12 733 -3 724 -3
732 -23 732 -20 0 -20 -7 -22 -600 -2 -330 -3 -603 -3 -607 0 -4 -24 3 -52 16
-266 116 -638 108 -950 -19 -17 -7 -18 25 -18 588 l0 596 53 19 c61 23 106 37
165 52 42 11 57 35 28 46 -16 6 -184 -39 -226 -61 -26 -14 -28 -13 -74 50
-112 152 -284 275 -473 338 -98 33 -262 67 -320 67 l-23 0 0 -197z m182 128
c260 -54 486 -195 612 -382 l36 -54 -1 -575 c0 -541 -1 -574 -17 -550 -39 58
-153 166 -232 219 -132 88 -307 151 -469 167 l-71 7 0 593 0 594 24 0 c13 0
66 -9 118 -19z m-182 -790 l0 -419 63 -7 c93 -10 253 -50 336 -84 110 -46 228
-129 320 -227 45 -47 80 -88 79 -90 -2 -2 -34 8 -71 21 -127 47 -259 68 -417
69 -161 0 -258 -16 -395 -65 -44 -16 -83 -30 -88 -32 -10 -3 -9 1175 2 1186 8
8 146 64 164 66 4 1 7 -188 7 -418z m580 -810 c47 -11 121 -32 165 -48 72 -25
80 -31 83 -55 2 -16 2 -28 0 -28 -2 0 -39 11 -82 25 -44 13 -136 34 -205 46
-219 37 -496 16 -671 -50 -30 -12 -56 -21 -56 -21 -1 0 -1 12 0 26 1 22 10 31
46 46 71 30 159 57 245 73 110 20 359 13 475 -14z m1085 0 c44 -11 112 -31
151 -46 61 -22 73 -31 77 -53 3 -15 4 -28 3 -30 -2 -1 -33 9 -71 23 -158 60
-432 81 -640 50 -89 -14 -249 -51 -298 -71 -16 -6 -18 -2 -15 22 3 25 10 32
63 51 72 26 217 62 300 73 99 14 339 4 430 -19z m-1033 -125 c174 -40 192 -48
196 -81 3 -23 1 -27 -15 -20 -10 4 -70 18 -133 32 -225 47 -532 41 -778 -17
-46 -11 -85 -20 -87 -20 -2 0 -2 12 -1 27 3 25 11 30 91 56 151 48 222 57 425
53 158 -2 202 -7 302 -30z m1002 19 c43 -8 118 -26 167 -41 81 -25 87 -29 91
-56 4 -26 2 -29 -16 -23 -66 20 -215 46 -320 56 -194 19 -491 -3 -631 -45 -27
-9 -51 -16 -53 -16 -2 0 -2 12 0 27 3 26 9 30 103 56 55 15 141 33 190 41 119
19 369 19 469 1z"/>
<path d="M864 2265 c-8 -21 4 -35 32 -35 28 0 44 28 23 41 -21 13 -49 11 -55
-6z"/>
<path d="M1024 2208 c-8 -13 13 -31 96 -77 33 -19 87 -59 120 -88 58 -53 82
-63 96 -41 11 17 -101 115 -195 171 -81 48 -105 55 -117 35z"/>
<path d="M864 2095 c-8 -19 3 -35 24 -35 32 -1 182 -68 249 -113 38 -25 92
-66 122 -92 50 -43 55 -45 70 -30 15 15 13 19 -24 52 -110 97 -241 175 -354
212 -76 25 -80 25 -87 6z"/>
<path d="M864 1927 c-8 -23 2 -35 39 -42 44 -10 186 -76 244 -115 26 -18 74
-55 106 -83 55 -46 60 -49 75 -33 16 15 14 19 -28 56 -76 68 -219 158 -299
189 -109 42 -130 46 -137 28z"/>
<path d="M860 1673 l1 -108 90 -44 c58 -28 94 -40 100 -34 5 5 8 56 7 113 l-3
104 -75 38 c-41 21 -85 38 -97 38 -23 0 -23 -2 -23 -107z m117 21 c32 -18 33
-22 33 -81 0 -35 -1 -63 -3 -63 -2 0 -25 10 -51 23 l-48 23 -3 66 c-2 74 -2
74 72 32z"/>
<path d="M1131 1636 c-10 -12 1 -24 61 -69 40 -30 82 -64 92 -76 23 -25 42
-27 50 -5 7 17 -28 53 -118 120 -65 49 -68 50 -85 30z"/>
<path d="M1132 1467 c-13 -15 -5 -30 26 -46 13 -7 52 -37 87 -67 66 -56 79
-62 91 -43 8 14 -45 70 -120 125 -64 48 -69 50 -84 31z"/>
<path d="M2165 2370 c-31 -12 -43 -31 -47 -71 -3 -32 -18 -48 -155 -167 -144
-124 -153 -131 -187 -125 -28 4 -39 1 -60 -20 -46 -47 -37 -69 83 -208 61 -70
120 -129 132 -132 47 -12 108 40 94 82 -4 15 5 30 41 63 25 24 49 44 53 45 3
1 49 -50 101 -112 107 -127 132 -145 178 -121 16 8 32 23 36 31 16 42 3 65
-98 182 l-104 119 49 41 c43 36 54 41 84 36 27 -4 38 0 59 20 47 47 38 71 -83
209 -122 140 -131 147 -176 128z m143 -159 c102 -120 117 -152 68 -150 -31 1
-219 223 -211 249 13 40 42 19 143 -99z m-131 -8 c11 -16 44 -54 73 -86 45
-50 51 -60 39 -72 -34 -33 -294 -255 -299 -254 -10 1 -142 164 -141 174 2 10
291 264 302 264 3 1 14 -11 26 -26z m-293 -360 c98 -113 114 -148 69 -148 -29
0 -225 228 -216 251 13 34 51 7 147 -103z m414 -53 c60 -68 91 -112 90 -125
-6 -41 -35 -24 -113 67 -127 146 -122 138 -100 154 11 8 22 13 26 12 3 -2 47
-50 97 -108z"/>
<path d="M1795 1458 c-29 -15 -45 -39 -45 -64 0 -16 -8 -23 -30 -27 -37 -8
-62 -54 -58 -105 l3 -37 305 0 305 0 3 41 c2 33 -2 48 -23 73 -15 17 -35 31
-46 31 -13 0 -19 7 -19 21 0 11 -13 34 -29 50 l-29 29 -159 0 c-95 0 -166 -5
-178 -12z m343 -65 l3 -23 -175 0 c-138 0 -176 3 -176 13 0 33 23 38 185 35
157 -3 160 -3 163 -25z m73 -73 c10 -6 19 -21 19 -33 l0 -22 -260 0 c-255 0
-260 0 -260 21 0 42 13 44 253 44 138 0 236 -4 248 -10z"/>
<path d="M930 443 c0 -13 -1 -26 -2 -30 -2 -4 16 -6 40 -5 l42 4 0 -126 0
-126 30 0 30 0 0 126 0 126 40 -4 c36 -3 40 -1 40 19 0 13 0 26 0 30 0 3 -49
7 -110 7 -108 1 -110 1 -110 -21z"/>
<path d="M1199 468 c0 -2 -2 -69 -5 -150 l-5 -148 106 0 105 0 0 25 c0 24 -2
25 -70 25 l-70 0 0 95 0 95 65 0 65 0 0 30 0 30 -95 0 c-52 0 -95 -1 -96 -2z"/>
<path d="M1450 468 c0 -2 -1 -69 -3 -151 -2 -134 -1 -148 15 -153 10 -3 26 -3
36 0 17 6 18 17 15 114 -3 89 -1 104 9 89 7 -10 40 -60 73 -110 49 -76 64 -92
85 -92 l25 0 3 153 3 153 -33 -3 -33 -3 -5 -90 c-5 -88 -5 -89 -19 -57 -8 19
-31 60 -52 93 -37 56 -41 59 -79 59 -22 0 -40 -1 -40 -2z"/>
<path d="M1810 357 c0 -120 -6 -137 -47 -137 -18 0 -23 -6 -23 -24 0 -30 30
-39 78 -23 53 17 62 44 62 180 l0 117 -35 0 -35 0 0 -113z"/>
<path d="M1940 315 l0 -155 31 4 30 3 2 151 2 152 -32 0 -33 0 0 -155z"/>
<path d="M1270 326 c0 -22 5 -24 55 -28 54 -3 55 -3 55 25 0 26 -2 27 -55 27
-51 0 -55 -2 -55 -24z"/>
</g>
</svg>